<svg width="20" height="21" viewBox="0 0 20 21" fill="none" xmlns="http://www.w3.org/2000/svg">
<path d="M7.42941 8.64316L9.48999 7.88078C9.88467 7.74213 10.1504 7.52846 10.2869 7.23966L11.9605 8.68362C12.2945 8.95702 12.6152 9.0744 12.9226 9.03594L12.5127 11.2423C12.4406 11.6658 12.5033 12.0086 12.7006 12.2704L10.6171 13.0213C10.2225 13.1599 9.96442 13.3717 9.84293 13.6566L8.14663 12.2184C7.82785 11.9566 7.51477 11.8372 7.2074 11.8603L7.59443 9.65397C7.66658 9.24192 7.61155 8.90498 7.42941 8.64316ZM2.11831 15.5106L4.97594 14.8348C5.23398 14.7733 5.48639 14.6674 5.73302 14.5172L5.38007 15.6608C5.2321 16.146 5.24539 16.6754 5.41994 17.2491C5.59075 17.8344 5.86779 18.2888 6.25106 18.6123L8.49957 20.5414C8.879 20.8649 9.25282 20.9707 9.62093 20.8591C10.0005 20.7474 10.2642 20.447 10.4122 19.958L11.2604 17.099C11.3363 16.8372 11.3666 16.5696 11.3515 16.2962L12.1655 17.1567C12.5108 17.5302 12.9719 17.7844 13.5487 17.9191C14.1255 18.0694 14.6527 18.0578 15.1316 17.8845L17.8806 16.8737C18.3587 16.7004 18.6415 16.4193 18.7289 16.0304C18.8279 15.6454 18.7039 15.2662 18.3587 14.8927L16.3322 12.7209C16.1467 12.5207 15.938 12.359 15.7061 12.2357L16.8272 11.9527C17.3205 11.841 17.7709 11.5676 18.1768 11.1326C18.5942 10.6975 18.8448 10.2239 18.9278 9.71171L19.446 6.77177C19.545 6.2751 19.446 5.89001 19.1499 5.61661C18.8689 5.3394 18.4818 5.26429 17.9886 5.39135L15.1316 6.06143C14.873 6.12686 14.6286 6.24044 14.3967 6.40216L14.7267 5.24121C14.8748 4.75603 14.8641 4.2266 14.6928 3.65282C14.5296 3.06374 14.2527 2.60743 13.8618 2.28407L11.6133 0.360642C11.23 0.0372798 10.8543 -0.0686977 10.4862 0.0429812C10.1067 0.15466 9.84293 0.453134 9.69496 0.938222L8.8468 3.80305C8.77465 4.06487 8.75003 4.33248 8.77278 4.60589L7.96449 3.74531C7.61913 3.37181 7.15237 3.11578 6.56413 2.97713C5.98348 2.82699 5.45982 2.84047 4.99297 3.01759L2.23221 4.02252C1.76537 4.19963 1.48271 4.48072 1.38397 4.86581C1.29674 5.25469 1.42571 5.63589 1.77108 6.00939L3.78054 8.17536C3.96268 8.37555 4.1771 8.54497 4.42373 8.68362L3.27963 8.94354C2.79004 9.05522 2.34228 9.33052 1.93618 9.76945C1.53016 10.2046 1.27774 10.6782 1.17909 11.1903L0.661047 14.1245C0.577561 14.625 0.676302 15.012 0.957087 15.2853C1.24171 15.5587 1.62881 15.6339 2.11831 15.5106Z" fill="#FDFDFD"/>
</svg>
